<svg width="643" height="305" viewBox="0 0 643 305" fill="none" xmlns="http://www.w3.org/2000/svg">
<path d="M588.554 126.259L583.832 123.82C583.138 123.457 567.695 115.562 551.321 114.088L560.847 106.934C568.094 113.635 580.898 114.699 592.17 108.788C605.208 101.958 610.319 87.0265 610.531 86.3883L612.091 81.7139L607.725 84.1691C607.695 84.1854 606.805 84.6553 605.238 85.1242C606.766 82.2977 608.134 79.3876 609.336 76.4076L610.112 74.3887L607.965 73.904C607.762 73.8611 603.78 72.9805 598.241 72.4263C598.916 71.8609 599.646 71.3656 600.421 70.9479L604.948 68.734L600.081 67.4227C599.426 67.2441 583.831 63.1588 570.79 69.9895C570.56 70.1091 570.348 70.2503 570.124 70.3745C570.433 69.9322 570.749 69.4997 571.043 69.0355C578.794 56.7157 575.496 41.3409 575.351 40.6951L574.284 35.8953L571.772 40.1649C571.754 40.1931 571.231 41.0435 570.115 42.2158C569.862 36.8029 569.189 32.8934 569.151 32.6935L568.778 30.5715L566.667 31.2155C566.47 31.2766 562.57 32.4874 557.489 34.7469C557.784 33.9298 558.16 33.1442 558.611 32.402L561.386 28.2577L556.496 29.5308C555.924 29.6778 544.252 32.8258 536.076 41.5853C536.289 27.2164 525.5 15.7279 525.036 15.2482L521.621 11.6628L521.675 16.5746C521.673 16.6062 521.662 17.5936 521.312 19.16C519.527 16.489 517.593 13.9205 515.52 11.4664L514.09 9.83795L512.608 11.4353C512.465 11.5871 509.734 14.5703 506.525 19.04C506.355 18.1913 506.271 17.3278 506.274 16.4624L506.51 11.5289L502.956 15.0583C502.472 15.533 491.18 26.8971 490.906 41.3251C490.749 49.5405 493.621 57.2222 498.781 62.4169C501.841 65.4922 505.574 67.4284 509.521 68.1325L508.833 78.6431C503.284 69.2852 497.646 63.7457 493.698 60.6588C491.295 58.7795 489.758 58.0129 489.695 57.9833L487.047 56.6726L491.72 72.7011L488.174 69.9411C488.174 69.9411 498.587 105.94 485.361 129.478L480.124 125.408L471.507 135.854L475.762 139.163C469.81 142.202 462.075 144.426 462.075 144.426L470.19 150.769L465.642 156.313L480.901 168.243L485.446 162.7L493.578 169.057C493.578 169.057 494.16 161.187 495.939 154.856L500.204 158.17L508.821 147.721L503.581 143.645C524.344 125.962 562.799 127.967 562.799 127.967L560.215 125.961L588.554 126.259ZM604.834 77.1618C603.502 80.1762 602.004 83.1138 600.345 85.9609C597.643 86.1289 594.3 85.8733 590.478 84.6663C591.55 80.8961 593.171 78.0512 594.796 75.9541C598.976 76.2296 602.632 76.7722 604.834 77.1618ZM605.186 89.0824C602.914 93.7022 598.188 101.348 590.352 105.453C578.802 111.501 565.521 109.363 560.745 100.691C560.552 100.345 560.385 99.9846 560.247 99.6133L560.244 99.611C558.367 94.7961 560.138 88.2934 564.274 84.82C568.676 81.121 575.041 81.2699 582.203 85.2439C592.189 90.7656 600.416 90.2482 605.186 89.0824ZM555.386 97.7154L544.562 103.563C547.623 100.823 551.305 98.4021 555.054 96.3003C555.141 96.7799 555.268 97.2445 555.386 97.7154ZM572.617 73.3294C580.437 69.2314 589.611 69.6086 594.833 70.305C592.166 72.7005 588.78 76.8339 586.855 83.2934C585.966 82.8921 585.062 82.448 584.131 81.931C574.197 76.4297 567.433 78.2554 563.571 80.6391C566.064 77.6191 569.141 75.133 572.617 73.3294ZM556.615 84.6546C549.863 85.9245 542.074 88.7241 534.323 94.4284L541.003 82.3578C546.653 84.2965 553.131 83.452 559.009 80.3327C558.077 81.7227 557.255 83.1607 556.615 84.6546ZM528.12 100.33L523.421 96.6567L535.599 79.5234C536.045 79.8429 536.484 80.1658 536.954 80.446L537.405 80.684C537.48 80.7305 537.555 80.7903 537.628 80.8371C537.953 81.0288 538.293 81.1743 538.626 81.3442L528.12 100.33ZM572.117 45.6489C572.537 50.7478 572.4 59.6568 567.741 67.0596C560.875 77.9709 548.273 82.6918 539.655 77.5917C539.312 77.3842 538.981 77.157 538.664 76.9113C534.547 73.694 532.722 67.2253 534.502 62.1918C536.397 56.8368 541.986 53.8175 550.236 53.6978C561.736 53.5195 568.593 49.0049 572.117 45.6489ZM528.686 84.8263C529.938 82.1299 531.249 79.461 532.617 76.8214C532.958 77.2127 533.351 77.5485 533.725 77.9047L533.651 77.845L528.686 84.8263ZM565.65 35.5684C565.924 37.7196 566.269 41.2836 566.316 45.3538C564.066 46.8399 561.038 48.2682 557.109 49.1186C556.089 45.3416 556.018 42.0953 556.339 39.4859C559.37 38.0134 562.478 36.7056 565.65 35.5684ZM553.451 34.6128C552.378 37.9856 551.588 43.2183 553.262 49.7245C552.282 49.8198 551.266 49.8876 550.198 49.9012C538.754 50.0732 533.843 54.9847 531.739 58.945C531.879 58.0104 532.072 57.0762 532.315 56.1425C533.435 54.1051 534.314 51.944 534.933 49.7031C535.215 49.1959 535.469 48.6838 535.786 48.1858C540.438 40.7943 548.571 36.5885 553.451 34.6128ZM527.579 62.463C527.579 64.2156 527.767 65.937 528.117 67.6142C525.21 69.8757 522.436 72.3022 519.807 74.8818L519.303 67.5295C522.414 66.4993 525.246 64.7655 527.579 62.463ZM513.993 15.6794C516.028 18.2632 517.922 20.9555 519.666 23.7445C518.492 26.1396 516.628 28.8674 513.674 31.5588C510.829 28.8259 509.076 26.0744 507.997 23.6772C509.848 20.9034 511.849 18.2335 513.993 15.6794ZM494.791 41.3768C494.956 32.721 499.785 25.0588 502.964 20.93C503.799 24.3612 505.837 29.2419 510.673 33.9886C509.884 34.5624 509.035 35.1228 508.126 35.6698C498.334 41.5108 496.656 48.1705 496.897 52.6196C495.467 49.2202 494.714 45.3876 494.791 41.3768ZM512.242 64.588L512.236 64.5886C507.009 63.8743 502.063 59.2367 500.98 54.0307C499.828 48.492 503.077 43.1208 510.139 38.9053C519.971 33.0258 523.531 25.7446 524.826 21.1048C527.847 25.2699 532.365 32.9841 532.204 41.6551C532.161 43.9592 531.844 46.1785 531.307 48.2756C530.155 50.4224 529.257 52.6406 528.64 54.8852C525.21 60.8441 519.647 64.7317 513.445 64.6799C513.043 64.6738 512.642 64.6431 512.242 64.588ZM494.898 74.3508L491.313 62.0604C495.434 65.1256 502.316 71.6288 508.693 83.6654L510.023 86.1839L494.898 74.3508ZM510.893 86.8619L512.097 68.4336C512.265 68.4438 512.435 68.4668 512.603 68.4718L513.111 68.4548C513.205 68.4549 513.3 68.4811 513.391 68.4762C514.532 68.486 515.648 68.3574 516.751 68.1621L517.614 80.8583L519.658 78.6887C522.644 75.5124 525.866 72.6868 528.89 70.278C529.393 71.7808 530.07 73.2195 530.908 74.5646C527.422 81.1853 524.297 87.9893 521.544 94.9468L521.471 95.1354L510.893 86.8619ZM480.502 164.683L469.277 155.908L472.211 152.35L483.436 161.13L480.502 164.683ZM505.172 148.125L499.811 154.624L475.155 135.448L480.516 128.951L505.172 148.125ZM529.763 101.613L530.814 100.637C539.259 92.8153 548.06 89.0954 555.628 87.4372C555.038 89.4136 554.749 91.4676 554.771 93.53C548.132 97.1443 541.522 101.807 537.658 107.458L537.509 107.673L529.763 101.613ZM539.465 109.204L556.176 100.173C556.408 100.734 556.657 101.287 556.949 101.825L557.209 102.254C557.254 102.332 557.28 102.424 557.325 102.505C557.84 103.411 558.431 104.27 559.093 105.075L546.383 114.615L539.465 109.204ZM548.731 116.446C559.712 116.987 570.848 120.942 577.225 123.609L557.627 123.401L548.731 116.446Z" fill="white"/>
<path d="M102.312 23.0625C103.562 21.8542 104.688 21.25 105.688 21.25C106.729 21.25 107.25 21.4375 107.25 21.8125C107.25 22.1458 107.062 22.3958 106.688 22.5625C106.354 22.7292 105.958 22.9583 105.5 23.25L103.812 24.375C103.104 24.875 102.271 25.625 101.312 26.625C99.0208 29.0833 97.3542 30.9375 96.3125 32.1875C93.2708 35.9792 90.8333 39.125 89 41.625L75.0625 60.8125C64.4792 75.5625 53.5417 88.1667 42.25 98.625L31.3125 108.312L36.125 105.5C39.7083 103.333 43.0417 101 46.125 98.5L55 91.125L64.5 82.375L91.5 56.25C101.875 46.7083 108.833 40.4583 112.375 37.5C119.042 32.0417 123.271 28.6667 125.062 27.375C131.146 22.875 134.521 20.625 135.188 20.625C135.896 20.625 136.25 20.9167 136.25 21.5C136.25 21.875 135.833 22.2708 135 22.6875L132.688 23.9375C128.979 25.8125 125.812 28.75 123.188 32.75C120.562 36.75 118.104 40.7292 115.812 44.6875L108.625 57L100.938 69.625C98.3125 73.7917 96.2083 76.9583 94.625 79.125L79.25 99.125L93.9375 83.9375L107.438 70.625L127.688 51.3125C142.729 37.0625 155.083 28.2083 164.75 24.75C168.25 23.5 171.833 22.875 175.5 22.875C179.167 22.875 182.229 23.6042 184.688 25.0625C187.146 26.5208 188.375 28.6875 188.375 31.5625C188.375 35.0625 186.792 38 183.625 40.375C180.667 42.625 176.979 43.75 172.562 43.75C170.104 43.75 168 43.3333 166.25 42.5C163.083 40.9167 161.5 39.4583 161.5 38.125C161.5 36.7917 162.021 36.125 163.062 36.125C163.646 36.125 164.021 36.2708 164.188 36.5625C164.396 36.8125 164.562 37.3542 164.688 38.1875C164.854 38.9792 165.25 39.6458 165.875 40.1875C166.5 40.7292 167.208 41.1667 168 41.5C169.458 42.1667 170.875 42.5 172.25 42.5C173.625 42.5 175.042 42.2708 176.5 41.8125C178 41.3542 179.375 40.6667 180.625 39.75C183.542 37.6667 185 34.9792 185 31.6875C185 29.2708 183.875 27.4583 181.625 26.25C179.792 25.2917 177.625 24.8125 175.125 24.8125C172.667 24.8125 170.479 25.0208 168.562 25.4375C166.646 25.8542 164.542 26.5833 162.25 27.625C160 28.625 157.542 29.9583 154.875 31.625C152.208 33.2917 149.25 35.375 146 37.875C139.292 42.9583 132.958 48.3958 127 54.1875L104.625 75.875L93.875 86.5L80.5625 100.312C74.3958 106.729 68.875 110.938 64 112.938C62.7917 113.438 61.9375 113.688 61.4375 113.688C60.6458 113.688 60.25 113.354 60.25 112.688C60.25 112.188 60.8125 111.75 61.9375 111.375C63.0625 111 64 110.646 64.75 110.312C65.5417 109.938 66.2917 109.479 67 108.938C67.7083 108.396 68.4167 107.688 69.125 106.812C69.875 105.938 70.6875 104.833 71.5625 103.5C72.4375 102.125 73.4583 100.438 74.625 98.4375C80.9167 87.4375 85.1458 80.2083 87.3125 76.75C92.2292 69.2083 95.3333 64.5417 96.625 62.75L119.875 33.75L112.312 39.5C109.562 41.625 106.958 43.875 104.5 46.25L74.75 75.3125L59.25 89.6875C48 99.8542 38.375 106.771 30.375 110.438L28 111.5C24.9583 112.958 22.9583 113.688 22 113.688C21.0417 113.688 20.5625 113.375 20.5625 112.75C20.5625 112.25 21.5 111.729 23.375 111.188C25.5 110.938 27.4167 110 29.125 108.375C32.0833 105.583 35.1667 101.854 38.375 97.1875L50.25 80.125L55.375 73.3125C60.625 66.6042 64.4375 61.8958 66.8125 59.1875C72.4792 52.8958 76.8542 48.2083 79.9375 45.125C93.6458 31.5833 101.104 24.2292 102.312 23.0625ZM1.5625 55.9375C0.979167 55.9375 0.6875 55.6042 0.6875 54.9375C0.6875 52.6875 1.875 49.7083 4.25 46C6.79167 42.0833 10.3333 38.5833 14.875 35.5C22.2083 30.5 29.8542 28 37.8125 28C43.4792 28 49.9792 29.2708 57.3125 31.8125L62.5 33.625C66.6667 35.0417 69.9167 35.75 72.25 35.75C74.5833 35.75 76.5 35.6042 78 35.3125C79.5 34.9792 81.0833 34.5 82.75 33.875C86.5 32.5 89.4375 30.9375 91.5625 29.1875C93.6875 27.3958 94.8958 26.5 95.1875 26.5C95.4792 26.5 95.625 26.625 95.625 26.875C95.625 27.25 94.875 28.1042 93.375 29.4375C91.875 30.7708 90.0208 32.1458 87.8125 33.5625C85.6458 34.9792 83.4792 36.125 81.3125 37C77.3542 38.5417 73.7917 39.3125 70.625 39.3125C67.5 39.3125 65.1458 39.2292 63.5625 39.0625C62.0208 38.8958 60.4583 38.6667 58.875 38.375C56.25 37.8333 53.4583 37.0833 50.5 36.125C47.5833 35.1667 45.5417 34.5417 44.375 34.25C43.25 33.9167 42.1667 33.6667 41.125 33.5C39.0833 33.125 36.8542 32.9375 34.4375 32.9375C31.9792 32.9375 29.4583 33.25 26.875 33.875C24.25 34.4583 21.7083 35.3125 19.25 36.4375C12.0417 39.7708 6.97917 44.2917 4.0625 50C3.27083 51.5833 2.875 52.8333 2.875 53.75C2.875 55.2083 2.4375 55.9375 1.5625 55.9375ZM138.875 105.625C136.25 107.292 133.396 108.667 130.312 109.75C127.271 110.833 124.375 111.375 121.625 111.375C118.875 111.375 116.771 111.104 115.312 110.562C113.896 109.979 112.729 109.188 111.812 108.188C107.896 103.938 107.917 97.6667 111.875 89.375C113.583 85.7083 116.167 82.375 119.625 79.375C123.083 76.3333 126.125 74.0625 128.75 72.5625C133.833 69.6458 138.604 68.1875 143.062 68.1875C147.479 68.1875 149.792 69.5625 150 72.3125C150.292 76.7708 144.875 81.625 133.75 86.875C129.667 88.7917 124.521 90.7708 118.312 92.8125C115.854 96.8125 114.625 100.083 114.625 102.625C114.625 105.125 115.271 106.917 116.562 108C117.896 109.042 119.812 109.562 122.312 109.562C124.854 109.562 127.583 109.021 130.5 107.938C133.458 106.854 136.208 105.479 138.75 103.812C141.333 102.146 143.667 100.333 145.75 98.375C147.833 96.4167 149.667 94.5417 151.25 92.75C152.875 90.9583 154.188 89.4167 155.188 88.125C156.229 86.7917 156.938 85.9583 157.312 85.625L158.625 86.6875C158.083 87.1458 157.25 88.0833 156.125 89.5C155.042 90.9167 153.646 92.5417 151.938 94.375C150.271 96.1667 148.333 98.0625 146.125 100.062C143.958 102.062 141.542 103.917 138.875 105.625ZM119.75 90.625C132.333 86.2083 140.438 81.8125 144.062 77.4375C145.271 75.9792 145.875 74.5625 145.875 73.1875C145.875 70.8542 144.792 69.6875 142.625 69.6875C138.792 69.6875 134 73.0417 128.25 79.75C124.25 84.4167 121.417 88.0417 119.75 90.625ZM180.75 94C170.542 105.417 162.417 111.125 156.375 111.125C151.083 111.125 148.438 108.396 148.438 102.938C148.438 96.6042 151.042 90.4792 156.25 84.5625C165.625 73.6458 175.521 68.1875 185.938 68.1875C189.062 68.1875 191.375 69.1458 192.875 71.0625C193.333 71.6875 193.562 72.2708 193.562 72.8125C193.562 73.3542 193.542 73.7083 193.5 73.875C193.5 74 193.5 74.1667 193.5 74.375L224.5 29.875L237.625 11.3125C239.167 11.9792 240.604 12.3125 241.938 12.3125C243.271 12.3125 244.479 12.25 245.562 12.125L186.188 95.375C183.771 98.625 181.938 101.208 180.688 103.125C179.479 105 178.875 106.5 178.875 107.625C178.875 108.708 179.396 109.25 180.438 109.25C184.479 109.25 189.062 107.375 194.188 103.625C198.896 100.208 204.042 95.0833 209.625 88.25C210.667 86.9167 211.396 86.0417 211.812 85.625L213.188 86.6875C212.729 87.1458 211.917 88.0625 210.75 89.4375C209.625 90.8125 208.208 92.3958 206.5 94.1875C204.833 95.9792 202.938 97.875 200.812 99.875C198.729 101.875 196.5 103.708 194.125 105.375C188.75 109.208 184 111.125 179.875 111.125C175.792 111.125 173.771 109.792 173.812 107.125C173.854 104.417 176.333 100.125 181.25 94.25L180.75 94ZM162.625 88.75C156.667 96 153.688 101.792 153.688 106.125C153.688 108.208 154.729 109.25 156.812 109.25C160.521 109.25 165.688 106.229 172.312 100.188L177.438 95.25C180.396 92.3333 182.812 89.5417 184.688 86.875L190.25 78.9375C191.208 77.0208 191.688 75.375 191.688 74C191.688 72.625 191.188 71.6458 190.188 71.0625C189.188 70.4375 188.146 70.125 187.062 70.125C185.979 70.125 184.604 70.5 182.938 71.25C181.312 71.9583 179.458 73.0833 177.375 74.625C172.833 77.875 167.917 82.5833 162.625 88.75ZM235.25 94C225.042 105.417 216.917 111.125 210.875 111.125C205.583 111.125 202.938 108.396 202.938 102.938C202.938 96.6042 205.542 90.4792 210.75 84.5625C220.125 73.6458 230.021 68.1875 240.438 68.1875C243.562 68.1875 245.875 69.1458 247.375 71.0625C247.833 71.6875 248.062 72.2708 248.062 72.8125C248.062 73.3542 248.042 73.7083 248 73.875C248 74 248 74.1667 248 74.375L279 29.875L292.125 11.3125C293.667 11.9792 295.104 12.3125 296.438 12.3125C297.771 12.3125 298.979 12.25 300.062 12.125L240.688 95.375C238.271 98.625 236.438 101.208 235.188 103.125C233.979 105 233.375 106.5 233.375 107.625C233.375 108.708 233.896 109.25 234.938 109.25C238.979 109.25 243.562 107.375 248.688 103.625C253.396 100.208 258.542 95.0833 264.125 88.25C265.167 86.9167 265.896 86.0417 266.312 85.625L267.688 86.6875C267.229 87.1458 266.417 88.0625 265.25 89.4375C264.125 90.8125 262.708 92.3958 261 94.1875C259.333 95.9792 257.438 97.875 255.312 99.875C253.229 101.875 251 103.708 248.625 105.375C243.25 109.208 238.5 111.125 234.375 111.125C230.292 111.125 228.271 109.792 228.312 107.125C228.354 104.417 230.833 100.125 235.75 94.25L235.25 94ZM217.125 88.75C211.167 96 208.188 101.792 208.188 106.125C208.188 108.208 209.229 109.25 211.312 109.25C215.021 109.25 220.188 106.229 226.812 100.188L231.938 95.25C234.896 92.3333 237.312 89.5417 239.188 86.875L244.75 78.9375C245.708 77.0208 246.188 75.375 246.188 74C246.188 72.625 245.688 71.6458 244.688 71.0625C243.688 70.4375 242.646 70.125 241.562 70.125C240.479 70.125 239.104 70.5 237.438 71.25C235.812 71.9583 233.958 73.0833 231.875 74.625C227.333 77.875 222.417 82.5833 217.125 88.75ZM298.938 54.5C298.354 55.0417 297.688 55.4792 296.938 55.8125C296.188 56.1042 295.333 56.25 294.375 56.25C293.417 56.25 292.583 55.8958 291.875 55.1875C291.208 54.4375 290.875 53.6042 290.875 52.6875C290.875 51.7708 291.042 50.9583 291.375 50.25C291.708 49.5417 292.167 48.9167 292.75 48.375C293.958 47.125 295.271 46.5 296.688 46.5C298.146 46.5 299.208 46.8958 299.875 47.6875C300.583 48.4375 300.938 49.2708 300.938 50.1875C300.938 51.1042 300.75 51.9167 300.375 52.625C300.042 53.3333 299.562 53.9583 298.938 54.5ZM259.25 107.438C259.25 108.729 260.479 109.375 262.938 109.375C265.396 109.375 267.708 108.812 269.875 107.688C272.083 106.562 274.292 105.167 276.5 103.5C278.75 101.792 280.917 99.9375 283 97.9375L288.625 92.3125C290.292 90.5625 291.667 89.0625 292.75 87.8125C293.833 86.5208 294.479 85.7708 294.688 85.5625L295.938 86.6875C295.521 87.1042 294.729 88 293.562 89.375C292.438 90.7083 291.021 92.2917 289.312 94.125C287.604 95.9167 285.688 97.8125 283.562 99.8125C281.438 101.812 279.208 103.646 276.875 105.312C271.5 109.188 266.792 111.125 262.75 111.125C260.167 111.125 258.104 110.667 256.562 109.75C255.021 108.792 254.25 107.708 254.25 106.5C254.25 105.292 254.375 104.208 254.625 103.25C254.875 102.292 255.333 101.146 256 99.8125C256.667 98.4792 257.604 96.9167 258.812 95.125C259.979 93.3333 261.521 91.1875 263.438 88.6875C265.312 86.1875 267.604 83.2917 270.312 80L279.938 68.625C280.438 68.75 281.458 68.8125 283 68.8125H285.938C287.021 68.8125 287.896 68.7708 288.562 68.6875C274.771 85.1458 267.021 94.5208 265.312 96.8125C263.562 99.0625 262.271 100.833 261.438 102.125C259.979 104.333 259.25 106.104 259.25 107.438ZM296.5 109.812C295.375 109.604 294.125 109.5 292.75 109.5C290.542 109.5 288.604 109.708 286.938 110.125L308.625 79.125C311.333 75.3333 312.729 73.0833 312.812 72.375C312.979 71 312.542 70.3125 311.5 70.3125C309.958 70.3125 306.125 74.125 300 81.75L296 86.6875C295.667 86.8542 295.312 86.7708 294.938 86.4375C294.604 86.0625 294.521 85.7917 294.688 85.625C295.896 84.3333 297.25 82.7083 298.75 80.75C300.292 78.75 301.896 76.8333 303.562 75C307.646 70.4583 311.042 68.1875 313.75 68.1875C318.333 68.1875 319.792 70.5417 318.125 75.25C317.792 76.25 317.062 77.5417 315.938 79.125L302.812 97.375L303.125 98.0625C313.625 86.5625 321.083 78.9583 325.5 75.25C329.708 71.75 332.833 69.7083 334.875 69.125C336.958 68.5 338.646 68.1875 339.938 68.1875C341.271 68.1875 342.396 68.375 343.312 68.75C344.271 69.125 345.042 69.6042 345.625 70.1875C346.708 71.2708 347.229 72.5833 347.188 74.125C347.188 75.625 346.896 77.1667 346.312 78.75C345.771 80.3333 344.833 82.2083 343.5 84.375C340.708 88.8333 336 94.6458 329.375 101.812C326.625 104.688 325.188 106.375 325.062 106.875C324.938 107.333 324.875 107.688 324.875 107.938C324.875 108.896 326.146 109.375 328.688 109.375C331.271 109.375 333.667 108.854 335.875 107.812C338.125 106.729 340.312 105.375 342.438 103.75C344.604 102.125 346.646 100.354 348.562 98.4375C350.521 96.4792 352.271 94.625 353.812 92.875C355.354 91.0833 356.646 89.5417 357.688 88.25C358.729 86.9167 359.438 86.0417 359.812 85.625L361.125 86.6875C360.708 87.1458 359.958 88.0625 358.875 89.4375C357.792 90.8125 356.438 92.3958 354.812 94.1875C353.229 95.9792 351.417 97.875 349.375 99.875C347.375 101.875 345.25 103.708 343 105.375C337.75 109.208 333 111.125 328.75 111.125C325 111.125 322.396 110.188 320.938 108.312C320.479 107.729 320.25 107.042 320.25 106.25C320.25 105.458 320.354 104.562 320.562 103.562C320.812 102.521 321.375 101.208 322.25 99.625C324.208 96.25 326.979 92.5417 330.562 88.5C334.188 84.4583 336.562 81.7292 337.688 80.3125C338.812 78.8958 339.708 77.6667 340.375 76.625C341.625 74.625 342.25 73.0833 342.25 72C342.25 70.5 341.25 69.75 339.25 69.75C335.125 69.75 328.312 74.4167 318.812 83.75C314.021 88.4167 308.521 94.5625 302.312 102.188L296.5 109.812ZM372.188 121.5C389.688 112.667 404.708 100.708 417.25 85.625L418.5 86.6875C405.208 102.771 388.979 115.333 369.812 124.375L358.688 137.688C349.312 148.354 341.688 155.042 335.812 157.75C332.188 159.375 328 160.188 323.25 160.188C320.625 160.188 318.729 159.292 317.562 157.5C316.771 156.292 316.75 154.812 317.5 153.062C318.25 151.354 319.292 149.792 320.625 148.375C321.917 146.958 323.667 145.438 325.875 143.812C328.083 142.188 330.833 140.438 334.125 138.562C340.875 134.729 349.958 130.396 361.375 125.562L386.562 94.25L386.062 94C378.438 102.667 371.604 108.062 365.562 110.188C363.771 110.812 362.229 111.125 360.938 111.125C355.896 111.125 353.292 108.396 353.125 102.938C353.125 96.4792 355.604 90.3542 360.562 84.5625C369.521 73.6458 379.271 68.1875 389.812 68.1875C392.562 68.1875 394.729 68.6458 396.312 69.5625C398.896 71.0208 399.479 73.5 398.062 77L403.938 69.4375C405.146 69.7708 406.25 69.9375 407.25 69.9375C409.667 69.9375 411.417 69.8542 412.5 69.6875L372.188 121.5ZM397.062 73.875C396.979 71.375 395.104 70.125 391.438 70.125C387.521 70.125 381.938 73.5417 374.688 80.375C372.229 82.75 369.583 85.7083 366.75 89.25C361.042 96.3333 358.229 101.917 358.312 106C358.396 107.208 358.667 108.062 359.125 108.562C359.583 109.021 360.354 109.25 361.438 109.25C362.562 109.25 364 108.917 365.75 108.25C367.5 107.542 369.5 106.375 371.75 104.75C376.958 101.042 382.458 95.8125 388.25 89.0625L393.125 83.125C395.75 79.2917 397.062 76.2083 397.062 73.875ZM359.188 128.25C337.896 137.583 325.25 144.958 321.25 150.375C319.833 152.333 319.125 154.208 319.125 156C319.125 156.458 319.521 156.979 320.312 157.562C321.062 158.188 322.125 158.5 323.5 158.5C324.875 158.5 326.25 158.312 327.625 157.938C329 157.604 330.438 157 331.938 156.125C333.438 155.292 335.062 154.125 336.812 152.625C338.562 151.167 340.542 149.312 342.75 147.062C344.917 144.854 347.354 142.208 350.062 139.125L359.188 128.25ZM83.875 258.562C77.9583 258.562 72.4583 257.771 67.375 256.188C61.5417 261.021 57.1667 264.375 54.25 266.25C48.8333 269.625 43.3125 271.312 37.6875 271.312C31.2708 271.312 27.125 269.458 25.25 265.75C24.7083 264.625 24.4375 263.521 24.4375 262.438C24.4375 261.354 24.625 260.479 25 259.812C25.375 259.146 25.8333 258.625 26.375 258.25C27.5 257.458 28.8125 257.062 30.3125 257.062C32.3958 257.062 33.4375 258 33.4375 259.875C33.4375 260.708 33.1042 261.438 32.4375 262.062C31.7292 262.646 30.7917 262.938 29.625 262.938C28.4167 262.938 27.5208 262.729 26.9375 262.312V262.75C26.9375 267.333 30.6875 269.625 38.1875 269.625C43.3958 269.625 49.2917 267.333 55.875 262.75L65.1875 255.438C59.2708 253.229 54.5417 250.104 51 246.062C47.5833 242.229 45.75 238 45.5 233.375C45.25 228.833 46.75 224.958 50 221.75C53.4167 218.375 58.0417 216.688 63.875 216.688C72 216.688 78.8333 220.167 84.375 227.125C86.0417 229.25 87.4583 231.521 88.625 233.938C102 221.104 110.75 212.854 114.875 209.188L125.125 200.312C138.958 188.938 149.146 183.25 155.688 183.25C156.438 183.25 156.812 183.375 156.812 183.625C156.812 183.917 156.458 184.188 155.75 184.438C155.083 184.688 154.333 185.229 153.5 186.062C152.667 186.896 151.458 188.292 149.875 190.25L143.75 198.062L101.438 254.312C113.062 250.854 122.125 244.667 128.625 235.75C130.708 232.917 132.104 230.542 132.812 228.625C133.771 226.083 134.354 224.812 134.562 224.812C134.688 224.812 134.875 225 135.125 225.375C135.417 225.708 135.521 226.458 135.438 227.625C135.396 228.75 135.104 230.104 134.562 231.688C134.021 233.229 133.333 234.708 132.5 236.125C131.125 238.5 128.854 241.188 125.688 244.188C119.312 250.396 110.562 254.646 99.4375 256.938L88.75 271.062L84.75 270.812C83.4167 270.729 82.3542 270.688 81.5625 270.688C80.8125 270.688 80.1667 270.729 79.625 270.812L77.875 271.062L87.125 259.625C87.25 259.417 87.375 259.229 87.5 259.062C87.625 258.854 87.7292 258.646 87.8125 258.438C86.4792 258.521 85.1667 258.562 83.875 258.562ZM89.5 235.875C91.2083 240.25 92.0625 244 92.0625 247.125C92.0625 250.25 91.8125 252.708 91.3125 254.5L114.5 226.438C129.792 208.646 139.271 197.812 142.938 193.938C146.604 190.021 149.312 187.25 151.062 185.625L146.875 187.375C141.25 189.833 133.208 195.583 122.75 204.625L109.625 216.5L89.5 235.875ZM66.6875 254.188C74.8125 246.938 81.6458 240.625 87.1875 235.25C83.7292 227.375 78.4583 222.208 71.375 219.75C69 218.958 66.6667 218.562 64.375 218.562C62.125 218.562 60.1042 218.979 58.3125 219.812C56.5625 220.604 55.0208 221.667 53.6875 223C50.8125 225.875 49.375 229.292 49.375 233.25C49.375 240.208 52.625 245.938 59.125 250.438C61.2917 251.938 63.8125 253.188 66.6875 254.188ZM68.875 254.875C73.4583 256.167 78.5833 256.812 84.25 256.812C85.7083 256.812 87.1667 256.75 88.625 256.625C89.5833 254.167 90.0625 251.792 90.0625 249.5C90.0625 245.25 89.375 241.188 88 237.312C78.625 246.146 72.25 252 68.875 254.875ZM126.688 267.312C126.688 268.812 127.688 269.562 129.688 269.562C132.479 269.562 135.479 268.5 138.688 266.375C145.604 261.75 152.812 254.833 160.312 245.625C160.312 245.625 165.042 239.938 174.5 228.562C176.5 228.812 178.312 228.938 179.938 228.938C181.562 228.938 182.917 228.875 184 228.75L177.875 235.812L155.75 262.75C154.292 264.542 153.562 266 153.562 267.125C153.562 268.625 154.562 269.375 156.562 269.375C158.562 269.375 160.625 268.854 162.75 267.812C164.917 266.729 167.062 265.375 169.188 263.75C171.354 262.125 173.458 260.354 175.5 258.438C177.542 256.479 179.396 254.625 181.062 252.875L187.625 245.625L188.875 246.688L186.438 249.438C185.229 250.812 183.75 252.396 182 254.188L176.188 259.875C168.229 267.375 161.625 271.125 156.375 271.125C154.667 271.125 153.25 270.667 152.125 269.75C151.042 268.792 150.458 267.521 150.375 265.938C150.292 262.896 151.354 259.458 153.562 255.625C143.979 265.958 135.854 271.125 129.188 271.125C125.438 271.125 123.042 269.792 122 267.125C121.708 266.375 121.542 265.417 121.5 264.25C121.458 263.083 121.75 261.688 122.375 260.062C122.958 258.438 123.854 256.688 125.062 254.812C126.271 252.896 127.75 250.833 129.5 248.625L140.75 235C142.5 232.833 144.354 230.688 146.312 228.562C147.938 228.812 149.25 228.938 150.25 228.938H152.375C154.167 228.938 155.312 228.875 155.812 228.75C150.938 234.083 147.521 237.938 145.562 240.312L133.125 255.25C128.75 260.333 126.604 264.354 126.688 267.312ZM211.125 254C200.917 265.417 192.792 271.125 186.75 271.125C181.458 271.125 178.812 268.396 178.812 262.938C178.812 256.604 181.417 250.479 186.625 244.562C196 233.646 205.896 228.188 216.312 228.188C219.438 228.188 221.75 229.146 223.25 231.062C223.708 231.688 223.938 232.271 223.938 232.812C223.938 233.354 223.917 233.708 223.875 233.875C223.875 234 223.875 234.167 223.875 234.375L254.875 189.875L268 171.312C269.542 171.979 270.979 172.312 272.312 172.312C273.646 172.312 274.854 172.25 275.938 172.125L216.562 255.375C214.146 258.625 212.312 261.208 211.062 263.125C209.854 265 209.25 266.5 209.25 267.625C209.25 268.708 209.771 269.25 210.812 269.25C214.854 269.25 219.438 267.375 224.562 263.625C229.271 260.208 234.417 255.083 240 248.25C241.042 246.917 241.771 246.042 242.188 245.625L243.562 246.688C243.104 247.146 242.292 248.062 241.125 249.438C240 250.812 238.583 252.396 236.875 254.188C235.208 255.979 233.312 257.875 231.188 259.875C229.104 261.875 226.875 263.708 224.5 265.375C219.125 269.208 214.375 271.125 210.25 271.125C206.167 271.125 204.146 269.792 204.188 267.125C204.229 264.417 206.708 260.125 211.625 254.25L211.125 254ZM193 248.75C187.042 256 184.062 261.792 184.062 266.125C184.062 268.208 185.104 269.25 187.188 269.25C190.896 269.25 196.062 266.229 202.688 260.188L207.812 255.25C210.771 252.333 213.188 249.542 215.062 246.875L220.625 238.938C221.583 237.021 222.062 235.375 222.062 234C222.062 232.625 221.562 231.646 220.562 231.062C219.562 230.438 218.521 230.125 217.438 230.125C216.354 230.125 214.979 230.5 213.312 231.25C211.688 231.958 209.833 233.083 207.75 234.625C203.208 237.875 198.292 242.583 193 248.75ZM274.812 214.5C274.229 215.042 273.562 215.479 272.812 215.812C272.062 216.104 271.208 216.25 270.25 216.25C269.292 216.25 268.458 215.896 267.75 215.188C267.083 214.438 266.75 213.604 266.75 212.688C266.75 211.771 266.917 210.958 267.25 210.25C267.583 209.542 268.042 208.917 268.625 208.375C269.833 207.125 271.146 206.5 272.562 206.5C274.021 206.5 275.083 206.896 275.75 207.688C276.458 208.438 276.812 209.271 276.812 210.188C276.812 211.104 276.625 211.917 276.25 212.625C275.917 213.333 275.438 213.958 274.812 214.5ZM235.125 267.438C235.125 268.729 236.354 269.375 238.812 269.375C241.271 269.375 243.583 268.812 245.75 267.688C247.958 266.562 250.167 265.167 252.375 263.5C254.625 261.792 256.792 259.938 258.875 257.938L264.5 252.312C266.167 250.562 267.542 249.062 268.625 247.812C269.708 246.521 270.354 245.771 270.562 245.562L271.812 246.688C271.396 247.104 270.604 248 269.438 249.375C268.312 250.708 266.896 252.292 265.188 254.125C263.479 255.917 261.562 257.812 259.438 259.812C257.312 261.812 255.083 263.646 252.75 265.312C247.375 269.188 242.667 271.125 238.625 271.125C236.042 271.125 233.979 270.667 232.438 269.75C230.896 268.792 230.125 267.708 230.125 266.5C230.125 265.292 230.25 264.208 230.5 263.25C230.75 262.292 231.208 261.146 231.875 259.812C232.542 258.479 233.479 256.917 234.688 255.125C235.854 253.333 237.396 251.188 239.312 248.688C241.188 246.188 243.479 243.292 246.188 240L255.812 228.625C256.312 228.75 257.333 228.812 258.875 228.812H261.812C262.896 228.812 263.771 228.771 264.438 228.688C250.646 245.146 242.896 254.521 241.188 256.812C239.438 259.062 238.146 260.833 237.312 262.125C235.854 264.333 235.125 266.104 235.125 267.438ZM298.25 260.938C296.708 260.938 295.583 260.312 294.875 259.062C289.917 264.688 284.562 268.417 278.812 270.25C276.896 270.833 275.021 271.125 273.188 271.125C271.396 271.125 269.854 270.917 268.562 270.5C267.271 270.083 266.208 269.5 265.375 268.75C262 265.833 261.667 260.812 264.375 253.688C265.417 250.896 266.771 248.292 268.438 245.875C270.062 243.458 271.896 241.229 273.938 239.188C276.021 237.104 278.25 235.25 280.625 233.625C286 230 291.25 228.188 296.375 228.188C298.583 228.188 300.479 228.771 302.062 229.938C303.688 231.062 304.562 232.708 304.688 234.875C304.812 237 304.688 239 304.312 240.875C303.938 242.75 303.375 244.625 302.625 246.5C301.125 250.333 299 253.958 296.25 257.375C296.542 258.583 297.333 259.188 298.625 259.188C299.958 259.188 301.208 258.896 302.375 258.312C303.583 257.688 304.771 256.938 305.938 256.062C307.146 255.146 308.312 254.146 309.438 253.062C310.604 251.938 311.667 250.875 312.625 249.875L315 247.25C315.667 246.458 316.146 245.917 316.438 245.625L317.812 246.688C317.271 247.188 316.583 247.896 315.75 248.812C314.917 249.729 313.979 250.708 312.938 251.75C312.938 251.75 311.833 252.833 309.625 255C305.333 258.958 301.542 260.938 298.25 260.938ZM272.312 268.75C272.979 269.083 273.917 269.25 275.125 269.25C277.833 269.25 281.312 267.729 285.562 264.688C288.812 262.354 291.708 259.667 294.25 256.625V256.375C294.25 252.833 295.583 250.167 298.25 248.375C298.958 247.875 299.625 247.521 300.25 247.312C302.25 243.062 303.188 239.583 303.062 236.875C302.812 232.583 301.229 230.438 298.312 230.438C293.396 230.438 286.5 235.979 277.625 247.062C271.917 254.229 269.229 259.812 269.562 263.812C269.562 266.104 270.479 267.75 272.312 268.75ZM418 180.188C418 187.104 410.375 197.208 395.125 210.5C396.417 214.458 398.708 217.042 402 218.25C402.917 218.583 403.792 218.75 404.625 218.75C405.5 218.75 406.167 218.667 406.625 218.5C407.375 218.208 407.958 218.062 408.375 218.062C408.792 218.062 409 218.229 409 218.562C409 218.896 408.708 219.208 408.125 219.5C407.083 219.958 405.562 220.188 403.562 220.188C401.604 220.188 399.625 219.458 397.625 218C395.625 216.542 394.104 214.625 393.062 212.25C375.562 227.292 347.833 247 309.875 271.375C307.417 272.917 305.854 273.688 305.188 273.688C304.479 273.688 304.125 273.5 304.125 273.125C304.125 272.75 304.354 272.458 304.812 272.25C305.229 272.042 305.646 271.854 306.062 271.688C306.438 271.521 307.104 271.104 308.062 270.438C309.021 269.771 310.396 268.417 312.188 266.375C313.979 264.333 315.917 261.833 318 258.875C320.083 255.917 322.354 252.5 324.812 248.625C332.854 235.875 337.729 228.188 339.438 225.562L345.125 217.5C349.125 212.042 352.896 207.354 356.438 203.438C348.312 209.229 341.688 212.125 336.562 212.125C333.438 212.125 331.25 211.021 330 208.812C328.833 206.688 329.083 204.25 330.75 201.5C331.708 199.875 332.854 198.375 334.188 197L337.312 193.625C340.271 190.417 341.708 188.271 341.625 187.188C341.583 186.062 341.354 185.25 340.938 184.75C340.521 184.208 339.958 183.792 339.25 183.5C337.958 182.875 335.958 182.562 333.25 182.562C328.083 182.562 322.875 184.729 317.625 189.062C316.875 189.729 316.312 190.062 315.938 190.062C315.562 190.062 315.375 189.854 315.375 189.438C315.333 188.812 315.833 188.104 316.875 187.312C317.958 186.479 319.188 185.688 320.562 184.938C321.938 184.188 323.375 183.542 324.875 183C328.167 181.833 330.979 181.25 333.312 181.25C335.646 181.25 337.5 181.396 338.875 181.688C340.292 181.979 341.5 182.417 342.5 183C347.375 185.875 347.104 191 341.688 198.375C340.812 199.542 339.875 200.625 338.875 201.625L336.438 204.188C334.604 206.146 333.688 207.521 333.688 208.312C333.688 209.771 334.5 210.5 336.125 210.5C337.792 210.5 339.562 210.25 341.438 209.75C343.354 209.208 345.625 208.25 348.25 206.875C354.083 203.708 360.917 198.479 368.75 191.188L370.375 189.75C373.208 187.375 374.958 186.188 375.625 186.188C376.333 186.188 376.688 186.396 376.688 186.812C376.729 187.146 376.583 187.396 376.25 187.562C375.917 187.729 375.542 187.958 375.125 188.25C372.417 190 370.479 191.688 369.312 193.312C368.188 194.938 367.292 196.333 366.625 197.5C352.792 223.042 339.188 242.667 325.812 256.375L317.375 264.625L328.125 257.25L340.375 248.375L353.562 238.5L366.938 228.125C378.938 218.375 387.229 211.458 391.812 207.375C391.771 207.083 391.75 206.812 391.75 206.562V205.75C391.75 198.458 394.146 191.5 398.938 184.875C401.812 180.875 404.958 178.042 408.375 176.375C410.042 175.542 411.604 175.125 413.062 175.125C416.354 175.125 418 176.812 418 180.188ZM394.25 205.188L403 197C411.542 188.542 415.812 182.688 415.812 179.438C415.812 178.562 415.5 177.896 414.875 177.438C414.292 176.938 413.75 176.688 413.25 176.688C411.125 176.688 408.938 177.458 406.688 179C404.438 180.542 402.396 182.604 400.562 185.188C396.354 191.104 394.25 197.542 394.25 204.5V205.188ZM414.562 214.5C413.979 215.042 413.312 215.479 412.562 215.812C411.812 216.104 410.958 216.25 410 216.25C409.042 216.25 408.208 215.896 407.5 215.188C406.833 214.438 406.5 213.604 406.5 212.688C406.5 211.771 406.667 210.958 407 210.25C407.333 209.542 407.792 208.917 408.375 208.375C409.583 207.125 410.896 206.5 412.312 206.5C413.771 206.5 414.833 206.896 415.5 207.688C416.208 208.438 416.562 209.271 416.562 210.188C416.562 211.104 416.375 211.917 416 212.625C415.667 213.333 415.188 213.958 414.562 214.5ZM374.875 267.438C374.875 268.729 376.104 269.375 378.562 269.375C381.021 269.375 383.333 268.812 385.5 267.688C387.708 266.562 389.917 265.167 392.125 263.5C394.375 261.792 396.542 259.938 398.625 257.938L404.25 252.312C405.917 250.562 407.292 249.062 408.375 247.812C409.458 246.521 410.104 245.771 410.312 245.562L411.562 246.688C411.146 247.104 410.354 248 409.188 249.375C408.062 250.708 406.646 252.292 404.938 254.125C403.229 255.917 401.312 257.812 399.188 259.812C397.062 261.812 394.833 263.646 392.5 265.312C387.125 269.188 382.417 271.125 378.375 271.125C375.792 271.125 373.729 270.667 372.188 269.75C370.646 268.792 369.875 267.708 369.875 266.5C369.875 265.292 370 264.208 370.25 263.25C370.5 262.292 370.958 261.146 371.625 259.812C372.292 258.479 373.229 256.917 374.438 255.125C375.604 253.333 377.146 251.188 379.062 248.688C380.938 246.188 383.229 243.292 385.938 240L395.562 228.625C396.062 228.75 397.083 228.812 398.625 228.812H401.562C402.646 228.812 403.521 228.771 404.188 228.688C390.396 245.146 382.646 254.521 380.938 256.812C379.188 259.062 377.896 260.833 377.062 262.125C375.604 264.333 374.875 266.104 374.875 267.438ZM429.125 259.5C429.625 259.583 430.25 259.625 431 259.625C431.792 259.625 432.729 259.333 433.812 258.75C434.896 258.167 436 257.417 437.125 256.5C438.292 255.583 439.438 254.583 440.562 253.5C441.688 252.375 442.708 251.312 443.625 250.312C444.583 249.271 445.417 248.333 446.125 247.5L447.562 245.625L448.938 246.688C448.438 247.188 447.792 247.875 447 248.75L444.375 251.75C438.583 258 434 261.125 430.625 261.125H429.562C429.229 261.125 428.896 261.083 428.562 261C425.062 268.625 417.625 272.438 406.25 272.438C401.292 272.438 397.688 271.25 395.438 268.875C394.479 267.833 394 266.5 394 264.875C394 263.25 394.396 261.875 395.188 260.75C395.938 259.583 396.833 258.625 397.875 257.875C400 256.333 401.917 255.562 403.625 255.562C405.292 255.562 406.125 256.354 406.125 257.938C406 259.021 405.083 259.833 403.375 260.375C402.833 260.542 402.312 260.625 401.812 260.625C401.271 260.625 400.771 260.458 400.312 260.125C399.812 259.75 399.417 259.479 399.125 259.312C398.875 259.562 398.562 259.854 398.188 260.188C397.771 260.521 397.375 260.917 397 261.375C396.083 262.5 395.625 263.667 395.625 264.875C395.625 266.042 396.021 266.979 396.812 267.688C397.604 268.396 398.542 268.938 399.625 269.312C401.25 269.896 402.958 270.188 404.75 270.188C406.5 270.188 408.312 269.812 410.188 269.062C412.104 268.312 413.979 267.062 415.812 265.312C420.854 260.521 423.583 253.417 424 244C424.25 237.667 425.021 232.708 426.312 229.125C426.354 229 426.375 228.812 426.375 228.562L411.625 246.688C410.792 247.688 410.188 248.333 409.812 248.625C409.396 248.917 409.188 249.062 409.188 249.062C408.688 249.104 408.354 248.979 408.188 248.688C408.104 248.479 408.292 248.083 408.75 247.5C419.5 234.667 425.542 227.375 426.875 225.625C427.542 222.375 428.625 220.75 430.125 220.75C430.833 220.75 431.417 220.938 431.875 221.312C432.375 221.688 432.625 222.167 432.625 222.75C432.583 223.542 431.938 224.667 430.688 226.125C429.479 227.542 428.729 228.458 428.438 228.875C428.188 229.25 428.021 229.583 427.938 229.875C427.854 230.125 427.812 230.375 427.812 230.625V231.375C427.771 232.5 427.875 233.833 428.125 235.375L429.688 245.75C430.604 251.417 430.417 256 429.125 259.5ZM442.062 267.312C442.062 268.812 443.062 269.562 445.062 269.562C447.854 269.562 450.854 268.5 454.062 266.375C460.979 261.75 468.188 254.833 475.688 245.625C475.688 245.625 480.417 239.938 489.875 228.562C491.875 228.812 493.688 228.938 495.312 228.938C496.938 228.938 498.292 228.875 499.375 228.75L493.25 235.812L471.125 262.75C469.667 264.542 468.938 266 468.938 267.125C468.938 268.625 469.938 269.375 471.938 269.375C473.938 269.375 476 268.854 478.125 267.812C480.292 266.729 482.438 265.375 484.562 263.75C486.729 262.125 488.833 260.354 490.875 258.438C492.917 256.479 494.771 254.625 496.438 252.875L503 245.625L504.25 246.688L501.812 249.438C500.604 250.812 499.125 252.396 497.375 254.188L491.562 259.875C483.604 267.375 477 271.125 471.75 271.125C470.042 271.125 468.625 270.667 467.5 269.75C466.417 268.792 465.833 267.521 465.75 265.938C465.667 262.896 466.729 259.458 468.938 255.625C459.354 265.958 451.229 271.125 444.562 271.125C440.812 271.125 438.417 269.792 437.375 267.125C437.083 266.375 436.917 265.417 436.875 264.25C436.833 263.083 437.125 261.688 437.75 260.062C438.333 258.438 439.229 256.688 440.438 254.812C441.646 252.896 443.125 250.833 444.875 248.625L456.125 235C457.875 232.833 459.729 230.688 461.688 228.562C463.312 228.812 464.625 228.938 465.625 228.938H467.75C469.542 228.938 470.688 228.875 471.188 228.75C466.312 234.083 462.896 237.938 460.938 240.312L448.5 255.25C444.125 260.333 441.979 264.354 442.062 267.312ZM527.562 271.125C523.396 271.125 521.312 269.833 521.312 267.25C521.312 265.125 522.521 262.458 524.938 259.25L528.875 254.25L528.25 254C521.25 262.625 514.646 268.042 508.438 270.25C506.729 270.833 505.25 271.125 504 271.125C498.875 271.125 496.312 268.396 496.312 262.938C496.312 256.521 498.875 250.396 504 244.562C511.583 235.729 519.208 230.5 526.875 228.875C529.167 228.417 531.125 228.188 532.75 228.188C534.375 228.188 535.646 228.312 536.562 228.562C537.521 228.771 538.354 229.083 539.062 229.5C540.562 230.458 541.312 231.646 541.312 233.062C541.312 234.438 541.062 235.75 540.562 237L546.688 229.438C547.812 229.771 548.854 229.938 549.812 229.938C552.271 229.938 554.042 229.854 555.125 229.688L534.062 255.062C529.062 260.896 526.562 265 526.562 267.375C526.562 268.708 527.354 269.375 528.938 269.375C530.521 269.375 532.333 268.896 534.375 267.938C536.458 266.979 538.521 265.75 540.562 264.25C542.604 262.75 544.583 261.083 546.5 259.25C548.458 257.417 550.25 255.625 551.875 253.875C553.542 252.125 555 250.5 556.25 249L559.25 245.625L560.562 246.688L557.375 250.312C545.375 264.188 535.438 271.125 527.562 271.125ZM510.25 248.625C504.375 255.75 501.438 261.583 501.438 266.125C501.438 268.208 502.375 269.25 504.25 269.25C510.333 269.25 519.104 262.521 530.562 249.062L535.812 242.75C538.312 238.958 539.562 236.208 539.562 234.5C539.562 231.583 538.104 230.125 535.188 230.125C531.229 230.125 525.542 233.5 518.125 240.25C515.583 242.583 512.958 245.375 510.25 248.625ZM552.812 267.312C552.812 268.688 553.812 269.375 555.812 269.375C557.812 269.375 559.938 268.854 562.188 267.812C564.479 266.729 566.729 265.375 568.938 263.75C571.188 262.125 573.354 260.354 575.438 258.438C577.521 256.479 579.417 254.625 581.125 252.875L585.438 248.25C586.604 246.917 587.396 246.042 587.812 245.625L589.062 246.688C588.604 247.146 587.75 248.062 586.5 249.438C585.292 250.812 583.792 252.396 582 254.188C580.25 255.979 578.271 257.875 576.062 259.875C573.896 261.875 571.625 263.708 569.25 265.375C563.708 269.208 558.854 271.125 554.688 271.125C552.938 271.125 551.5 270.646 550.375 269.688C549.208 268.729 548.625 267.708 548.625 266.625C548.625 265.5 548.688 264.604 548.812 263.938C548.896 263.271 549.104 262.521 549.438 261.688C549.771 260.812 550.25 259.812 550.875 258.688C551.5 257.521 552.333 256.125 553.375 254.5L562.938 240.375L611.25 171.312C614.25 171.729 617.146 171.729 619.938 171.312C580.188 226.562 559.604 255.25 558.188 257.375C556.771 259.458 555.729 261.042 555.062 262.125C554.396 263.167 553.896 264.021 553.562 264.688C553.062 265.688 552.812 266.562 552.812 267.312Z" fill="white"/>
</svg>
